<svg width="60" height="53" viewBox="0 0 60 53" fill="none" xmlns="http://www.w3.org/2000/svg">
<path d="M2.68906 45.73L0.209063 41.5H1.04906L3.04906 44.92H3.06906L5.06906 41.5H5.90906L3.42906 45.73V49H2.68906V45.73ZM5.34305 46.66C5.34305 45.3 6.45305 44.2 7.81305 44.2C9.17305 44.2 10.263 45.3 10.263 46.66C10.263 48.02 9.17305 49.12 7.81305 49.12C6.45305 49.12 5.34305 48.02 5.34305 46.66ZM6.03305 46.66C6.03305 47.66 6.82305 48.47 7.81305 48.47C8.80305 48.47 9.59305 47.66 9.59305 46.66C9.59305 45.66 8.80305 44.85 7.81305 44.85C6.83305 44.85 6.03305 45.66 6.03305 46.66ZM14.5024 44.32H15.1824V46.96C15.1824 48.22 14.5824 49.12 13.2924 49.12C11.9824 49.12 11.4024 48.23 11.4024 46.96V44.32H12.0824V46.85C12.0824 47.67 12.2724 48.48 13.2924 48.48C14.3024 48.48 14.5024 47.67 14.5024 46.85V44.32ZM17.1996 44.32V45.05H17.2196C17.4696 44.51 17.9396 44.2 18.4496 44.2C18.6396 44.2 18.7796 44.21 18.9396 44.28V44.92C18.7896 44.86 18.6296 44.84 18.4296 44.84C17.9496 44.84 17.1996 45.41 17.1996 46.46V49H16.5196V44.32H17.1996ZM24.8086 41.38H24.9286L28.2586 49H27.4386L26.5186 46.85H23.2086L22.2986 49H21.4786L24.8086 41.38ZM26.2186 46.13L24.8786 42.98H24.8586L23.5186 46.13H26.2186ZM31.9177 45.03L31.3477 45.33C31.1977 45.06 30.8977 44.84 30.5377 44.84C30.1577 44.84 29.8577 45.09 29.8577 45.46C29.8577 46.42 32.0777 46.04 32.0777 47.75C32.0777 48.55 31.3477 49.12 30.5377 49.12C29.8477 49.12 29.1777 48.71 28.8977 47.97L29.4677 47.67C29.6177 48.13 29.9877 48.48 30.5377 48.48C31.0177 48.48 31.4077 48.18 31.4077 47.75C31.4077 46.63 29.1877 46.98 29.1877 45.46C29.1877 44.66 29.7977 44.2 30.5377 44.2C31.1777 44.2 31.7077 44.56 31.9177 45.03ZM35.9412 45.03L35.3712 45.33C35.2212 45.06 34.9212 44.84 34.5612 44.84C34.1812 44.84 33.8812 45.09 33.8812 45.46C33.8812 46.42 36.1012 46.04 36.1012 47.75C36.1012 48.55 35.3712 49.12 34.5612 49.12C33.8712 49.12 33.2012 48.71 32.9212 47.97L33.4912 47.67C33.6412 48.13 34.0112 48.48 34.5612 48.48C35.0412 48.48 35.4312 48.18 35.4312 47.75C35.4312 46.63 33.2112 46.98 33.2112 45.46C33.2112 44.66 33.8212 44.2 34.5612 44.2C35.2012 44.2 35.7312 44.56 35.9412 45.03ZM38.0046 44.32V49H37.3246V44.32H38.0046ZM37.6646 42.18C37.9446 42.18 38.1846 42.43 38.1846 42.71C38.1846 43.01 37.9446 43.24 37.6646 43.24C37.3746 43.24 37.1446 43.01 37.1446 42.71C37.1446 42.43 37.3746 42.18 37.6646 42.18ZM42.3474 45.03L41.7774 45.33C41.6274 45.06 41.3274 44.84 40.9674 44.84C40.5874 44.84 40.2874 45.09 40.2874 45.46C40.2874 46.42 42.5074 46.04 42.5074 47.75C42.5074 48.55 41.7774 49.12 40.9674 49.12C40.2774 49.12 39.6074 48.71 39.3274 47.97L39.8974 47.67C40.0474 48.13 40.4174 48.48 40.9674 48.48C41.4474 48.48 41.8374 48.18 41.8374 47.75C41.8374 46.63 39.6174 46.98 39.6174 45.46C39.6174 44.66 40.2274 44.2 40.9674 44.2C41.6074 44.2 42.1374 44.56 42.3474 45.03ZM44.5285 42.54V44.32H45.3285V44.96H44.5285V47.22C44.5285 48.05 44.6485 48.48 45.2185 48.48C45.3985 48.48 45.5485 48.43 45.7085 48.36V49C45.5385 49.08 45.3585 49.12 45.1885 49.12C44.2085 49.12 43.8485 48.43 43.8485 47.35V44.96H43.3485V44.32H43.8485V42.54H44.5285ZM46.2513 46.66C46.2513 45.3 47.3613 44.2 48.7212 44.2C49.5013 44.2 50.0313 44.48 50.4713 44.95H50.4913V44.32H51.1713V49H50.4913V48.37H50.4713C50.0313 48.86 49.5013 49.12 48.7212 49.12C47.3613 49.12 46.2513 48.02 46.2513 46.66ZM46.9313 46.66C46.9313 47.66 47.7213 48.48 48.7212 48.48C49.7213 48.48 50.5113 47.66 50.5113 46.66C50.5113 45.66 49.7213 44.84 48.7212 44.84C47.7213 44.84 46.9313 45.66 46.9313 46.66ZM52.5157 44.32H53.1957V44.9H53.2157C53.5057 44.46 53.9957 44.2 54.6657 44.2C55.9257 44.2 56.2957 45.18 56.2957 46.31V49H55.6157V46.41C55.6157 45.34 55.2657 44.84 54.5157 44.84C53.8057 44.84 53.1957 45.41 53.1957 46.46V49H52.5157V44.32ZM58.5129 42.54V44.32H59.3129V44.96H58.5129V47.22C58.5129 48.05 58.6329 48.48 59.2029 48.48C59.3829 48.48 59.5329 48.43 59.6929 48.36V49C59.5229 49.08 59.3429 49.12 59.1729 49.12C58.1929 49.12 57.8329 48.43 57.8329 47.35V44.96H57.3329V44.32H57.8329V42.54H58.5129Z" fill="#7B7676"/>
<rect x="14" y="4" width="32" height="32" rx="16" fill="#262928"/>
<!-- AI sparkle icon -->
<path d="M30 12.5L31.2 16.3L35 17.5L31.2 18.7L30 22.5L28.8 18.7L25 17.5L28.8 16.3L30 12.5Z" fill="white"/>
<path d="M36.5 19.5L37.15 21.45L39.1 22.1L37.15 22.75L36.5 24.7L35.85 22.75L33.9 22.1L35.85 21.45L36.5 19.5Z" fill="white"/>
<path d="M24.5 20.5L24.95 21.85L26.3 22.3L24.95 22.75L24.5 24.1L24.05 22.75L22.7 22.3L24.05 21.85L24.5 20.5Z" fill="white"/>
<rect x="31" width="19" height="15" rx="4" fill="#7EC086"/>
<path d="M39.82 3.34H39.99L42.27 11H40.94L40.46 9.25H37.47L36.45 11H35.13L39.82 3.34ZM40.16 8.13L39.53 5.8H39.51L38.13 8.13H40.16ZM45.5523 3.5L44.3723 11H43.1323L44.3123 3.5H45.5523Z" fill="white"/>
<path d="M35 8.5H45.1023V9H35V8.5Z" fill="white"/>
</svg>
