<svg width="60" height="49" viewBox="0 0 60 49" fill="none" xmlns="http://www.w3.org/2000/svg">
<path d="M18.7268 39.16C18.1468 38.52 17.3168 38.1 16.3768 38.1C14.6368 38.1 13.2568 39.52 13.2568 41.25C13.2568 42.98 14.6368 44.4 16.3768 44.4C17.3468 44.4 18.2268 43.95 18.8068 43.27L19.3168 43.8C18.5968 44.61 17.5368 45.12 16.3768 45.12C14.2268 45.12 12.4768 43.4 12.4768 41.25C12.4768 39.1 14.2268 37.38 16.3768 37.38C17.5168 37.38 18.5468 37.87 19.2568 38.64L18.7268 39.16ZM20.26 42.66C20.26 41.3 21.37 40.2 22.73 40.2C23.51 40.2 24.04 40.48 24.48 40.95H24.5V40.32H25.18V45H24.5V44.37H24.48C24.04 44.86 23.51 45.12 22.73 45.12C21.37 45.12 20.26 44.02 20.26 42.66ZM20.94 42.66C20.94 43.66 21.73 44.48 22.73 44.48C23.73 44.48 24.52 43.66 24.52 42.66C24.52 41.66 23.73 40.84 22.73 40.84C21.73 40.84 20.94 41.66 20.94 42.66ZM27.2045 40.32V40.9H27.2245C27.4645 40.49 27.8745 40.2 28.3645 40.2C29.0345 40.2 29.3945 40.41 29.6445 40.9H29.6645C29.9145 40.41 30.4745 40.2 31.0545 40.2C32.2545 40.2 32.5245 41.13 32.5245 42.13V45H31.8445V42.2C31.8445 41.56 31.7745 40.84 30.9345 40.84C30.0945 40.84 29.8645 41.62 29.8645 42.46V45H29.1845V42.28C29.1845 41.5 29.0845 40.84 28.2745 40.84C27.5145 40.84 27.2045 41.83 27.2045 42.66V45H26.5245V40.32H27.2045ZM37.5306 43.62L38.0906 43.96C37.6806 44.65 36.8106 45.12 35.9306 45.12C34.5706 45.12 33.5706 44.02 33.5706 42.66C33.5706 41.3 34.5706 40.2 35.9306 40.2C37.2906 40.2 38.2906 41.3 38.2906 42.66V42.79H34.2406C34.2906 43.73 34.9706 44.48 35.9306 44.48C36.5806 44.48 37.2306 44.14 37.5306 43.62ZM34.2806 42.19H37.5806C37.3806 41.35 36.7106 40.84 35.9306 40.84C35.1706 40.84 34.4806 41.35 34.2806 42.19ZM40.1146 40.32V41.05H40.1346C40.3846 40.51 40.8546 40.2 41.3646 40.2C41.5546 40.2 41.6946 40.21 41.8546 40.28V40.92C41.7046 40.86 41.5446 40.84 41.3446 40.84C40.8646 40.84 40.1146 41.41 40.1146 42.46V45H39.4346V40.32H40.1146ZM42.3987 42.66C42.3987 41.3 43.5087 40.2 44.8687 40.2C45.6487 40.2 46.1787 40.48 46.6187 40.95H46.6387V40.32H47.3187V45H46.6387V44.37H46.6187C46.1787 44.86 45.6487 45.12 44.8687 45.12C43.5087 45.12 42.3987 44.02 42.3987 42.66ZM43.0787 42.66C43.0787 43.66 43.8687 44.48 44.8687 44.48C45.8687 44.48 46.6587 43.66 46.6587 42.66C46.6587 41.66 45.8687 40.84 44.8687 40.84C43.8687 40.84 43.0787 41.66 43.0787 42.66Z" fill="#7B7676"/>
<rect x="14" width="32" height="32" rx="16" fill="#262928"/>
<path d="M27.5003 8.5H32.5003L34.167 10.1667H37.5003C37.9606 10.1667 38.3337 10.5398 38.3337 11V22.6667C38.3337 23.1269 37.9606 23.5 37.5003 23.5H22.5003C22.0401 23.5 21.667 23.1269 21.667 22.6667V11C21.667 10.5398 22.0401 10.1667 22.5003 10.1667H25.8337L27.5003 8.5ZM30.0003 21.8333C32.7617 21.8333 35.0003 19.5947 35.0003 16.8333C35.0003 14.0719 32.7617 11.8333 30.0003 11.8333C27.2389 11.8333 25.0003 14.0719 25.0003 16.8333C25.0003 19.5947 27.2389 21.8333 30.0003 21.8333ZM30.0003 20.1667C28.1594 20.1667 26.667 18.6742 26.667 16.8333C26.667 14.9924 28.1594 13.5 30.0003 13.5C31.8412 13.5 33.3337 14.9924 33.3337 16.8333C33.3337 18.6742 31.8412 20.1667 30.0003 20.1667Z" fill="white"/>
</svg>
