<svg width="32" height="32" viewBox="0 0 32 32" fill="none" xmlns="http://www.w3.org/2000/svg">
<path d="M9.72158 27.7657L2.66669 29.3334L4.23443 22.2785C3.23394 20.4075 2.66669 18.2701 2.66669 16.0001C2.66669 8.63628 8.63622 2.66675 16 2.66675C23.3638 2.66675 29.3334 8.63628 29.3334 16.0001C29.3334 23.3638 23.3638 29.3334 16 29.3334C13.73 29.3334 11.5926 28.7662 9.72158 27.7657ZM10.1077 24.9481L10.9791 25.4141C12.51 26.2327 14.2207 26.6667 16 26.6667C21.8911 26.6667 26.6667 21.8911 26.6667 16.0001C26.6667 10.109 21.8911 5.33341 16 5.33341C10.109 5.33341 5.33335 10.109 5.33335 16.0001C5.33335 17.7794 5.76734 19.4901 6.58601 21.021L7.05197 21.8923L6.1789 25.8211L10.1077 24.9481Z" fill="white"/>
</svg>
