<svg width="46" height="46" viewBox="0 0 46 46" fill="none" xmlns="http://www.w3.org/2000/svg">
<g clip-path="url(#clip0_157_948)">
<path d="M11.7789 26.8729C10.9109 28.9828 10.9108 31.3659 11.7789 33.4759C13.8889 34.3441 16.2721 34.344 18.382 33.476L16.2519 31.3458C15.4836 31.4989 14.6869 31.5011 13.9083 31.3465C13.7537 30.5679 13.756 29.7713 13.909 29.003L11.7789 26.8729ZM14.3218 19.6194L10.2977 19.8722L8.48078 21.6891L23.5657 36.7741L25.3826 34.9572L25.6355 30.9331L31.1082 25.4603C34.3923 22.1763 34.8249 17.0213 32.5647 12.6902C28.2336 10.4299 23.0785 10.8626 19.7945 14.1466L14.3218 19.6194ZM12.941 22.3781L15.4948 22.2176L21.6801 16.0323C23.8654 13.847 27.3382 13.3361 30.5623 14.6926C31.9187 17.9167 31.4079 21.3894 29.2226 23.5747L23.0373 29.76L22.8768 32.3139L12.941 22.3781ZM23.5657 21.6891C24.6072 22.7306 26.2956 22.7305 27.337 21.6891C28.3784 20.6477 28.3784 18.9593 27.337 17.9179C26.2956 16.8764 24.6071 16.8765 23.5657 17.9179C22.5244 18.9592 22.5243 20.6477 23.5657 21.6891Z" fill="white"/>
</g>
<defs>
<clipPath id="clip0_157_948">
<rect width="32" height="32" fill="white" transform="matrix(-0.707107 -0.707107 -0.707107 0.707107 45.2548 22.6274)"/>
</clipPath>
</defs>
</svg>
