<svg width="32" height="32" viewBox="0 0 32 32" fill="none" xmlns="http://www.w3.org/2000/svg">
<path d="M16 2.66675C23.3638 2.66675 29.3334 8.63628 29.3334 16.0001C29.3334 23.3638 23.3638 29.3334 16 29.3334C8.63622 29.3334 2.66669 23.3638 2.66669 16.0001C2.66669 8.63628 8.63622 2.66675 16 2.66675ZM16.213 21.3334C13.4991 21.3334 11.0558 22.4917 9.35037 24.3409C11.1739 25.7966 13.4854 26.6667 16 26.6667C18.626 26.6667 21.0303 25.7178 22.8888 24.1442C21.1942 22.4099 18.8292 21.3334 16.213 21.3334ZM16 5.33341C10.109 5.33341 5.33335 10.109 5.33335 16.0001C5.33335 18.4142 6.13535 20.641 7.48745 22.4286C9.67521 20.1122 12.7753 18.6667 16.213 18.6667C19.5255 18.6667 22.5244 20.0089 24.6958 22.179C25.9368 20.4357 26.6667 18.3031 26.6667 16.0001C26.6667 10.109 21.8911 5.33341 16 5.33341ZM16 6.66675C18.9455 6.66675 21.3334 9.05456 21.3334 12.0001C21.3334 14.9455 18.9455 17.3334 16 17.3334C13.0545 17.3334 10.6667 14.9455 10.6667 12.0001C10.6667 9.05456 13.0545 6.66675 16 6.66675ZM16 9.33341C14.5272 9.33341 13.3334 10.5273 13.3334 12.0001C13.3334 13.4729 14.5272 14.6667 16 14.6667C17.4728 14.6667 18.6667 13.4729 18.6667 12.0001C18.6667 10.5273 17.4728 9.33341 16 9.33341Z" fill="white"/>
</svg>
