<svg width="32" height="32" viewBox="0 0 32 32" fill="none" xmlns="http://www.w3.org/2000/svg">
<path d="M24.0414 22.1558L29.7516 27.8661L27.866 29.7517L22.1558 24.0414C20.1026 25.6841 17.4987 26.6667 14.6667 26.6667C8.04269 26.6667 2.66669 21.2907 2.66669 14.6667C2.66669 8.04275 8.04269 2.66675 14.6667 2.66675C21.2907 2.66675 26.6667 8.04275 26.6667 14.6667C26.6667 17.4987 25.684 20.1026 24.0414 22.1558ZM21.3663 21.1665C22.9967 19.4862 24 17.1942 24 14.6667C24 9.51008 19.8234 5.33341 14.6667 5.33341C9.51002 5.33341 5.33335 9.51008 5.33335 14.6667C5.33335 19.8234 9.51002 24.0001 14.6667 24.0001C17.1942 24.0001 19.4862 22.9967 21.1664 21.3663L21.3663 21.1665Z" fill="white"/>
</svg>
